# xmcd
#
# Track frame offsets:
#	150
#	29934
#	61732
#	78240
#	106118
#	126277
#	162683
#
# Disc length: 2712 seconds
#
# Revision: 0
# Processed by: cddbd v1.5.2PL0 Copyright (c) Steve Scherf et al.
# Submitted via: EZCDAudioConverter 1.0.4.1
#
DISCID=5a0a9607
DTITLE=Grateful Dead - To Terrapin - Hartford '77 [CD2]
DYEAR=2009
DGENRE=Pop/Rock
TTITLE0=New Minglewod Blues
TTITLE1=Candyman
TTITLE2=Passenger
TTITLE3=Brown-Eyed Woman
TTITLE4=Promised Land
TTITLE5=Samson and Delilah
TTITLE6=Tennessee Jed
EXTD=
EXTT0=
EXTT1=
EXTT2=
EXTT3=
EXTT4=
EXTT5=
EXTT6=
PLAYORDER=
